<svg xmlns="http://www.w3.org/2000/svg" viewBox="0 0 1200 760" role="img" aria-labelledby="title desc">
  <title id="title">Bible study meme card</title>
  <desc id="desc">A playful illustrated card with an open Bible and bright idea shapes.</desc>
  <defs>
    <linearGradient id="bg" x1="0" x2="1" y1="0" y2="1">
      <stop offset="0" stop-color="#edf4ef"/>
      <stop offset="0.62" stop-color="#7ea48a"/>
      <stop offset="1" stop-color="#17211d"/>
    </linearGradient>
    <filter id="shadow" x="-20%" y="-20%" width="140%" height="140%">
      <feDropShadow dx="0" dy="24" stdDeviation="22" flood-color="#17211d" flood-opacity="0.22"/>
    </filter>
  </defs>
  <rect width="1200" height="760" fill="url(#bg)"/>
  <path d="M0 580c190-120 323-78 462-128 171-62 249-223 443-189 139 24 220 120 295 188v309H0z" fill="#fbfaf6" opacity="0.18"/>
  <g filter="url(#shadow)">
    <path d="M257 277c110-48 230-48 343 0v318c-112-54-232-54-343 0z" fill="#fbfaf6"/>
    <path d="M600 277c113-48 233-48 343 0v318c-111-54-231-54-343 0z" fill="#f6efe1"/>
    <path d="M600 277v318" stroke="#d6a94d" stroke-width="12" stroke-linecap="round"/>
    <path d="M318 352h205M318 410h172M677 352h205M677 410h154" stroke="#426a50" stroke-width="18" stroke-linecap="round"/>
  </g>
  <g fill="#d6a94d">
    <circle cx="304" cy="171" r="24"/>
    <circle cx="910" cy="186" r="20"/>
    <circle cx="1004" cy="324" r="16"/>
    <path d="M612 124l24 55 59 7-44 39 12 58-51-30-51 30 12-58-44-39 59-7z"/>
  </g>
</svg>
